<svg xmlns="http://www.w3.org/2000/svg" viewBox="0 0 28.4 28.05"><defs><style>.cls-1{fill:#ea563d;}</style></defs><g id="Layer_2" data-name="Layer 2"><g id="Lag_1" data-name="Lag 1"><path class="cls-1" d="M3.85,1.6H1a1.24,1.24,0,0,1-.54-.1A.7.7,0,0,1,0,.65a.66.66,0,0,1,.7-.6C2,0,3.2,0,4.43,0a.87.87,0,0,1,.81.73c.27,1,.59,1.89.9,2.86H26.08a2.28,2.28,0,0,1,1.9.63,1.44,1.44,0,0,1,.37,1.4c-.71,2.86-1.43,5.72-2.13,8.59a2.18,2.18,0,0,1-2.28,1.59H10.64l-.55,0c.33,1,.63,2,1,3,0,.11.37.16.57.16H25.25a.7.7,0,0,1,.71.71.8.8,0,0,1-.67.83,2.84,2.84,0,0,1-.41,0h-14c-.75,0-.92-.13-1.15-.86L4,1.9C4,1.81,3.9,1.72,3.85,1.6ZM9.56,14.21l.16,0H24.19c.32,0,.44-.14.51-.42.22-.9.45-1.79.67-2.69q.72-3,1.46-6H6.66Z"/><path class="cls-1" d="M22.78,23.31a2.48,2.48,0,0,1,2.43,2.39,2.43,2.43,0,0,1-2.49,2.35,2.37,2.37,0,0,1-2.4-2.42A2.41,2.41,0,0,1,22.78,23.31Z"/><path class="cls-1" d="M15.42,25.69a2.45,2.45,0,0,1-4.89,0,2.45,2.45,0,0,1,4.89,0Z"/></g></g></svg>