<svg xmlns="http://www.w3.org/2000/svg" viewBox="0 0 134.2 123"><defs><style>.cls-1{fill:#edea90;}.cls-2,.cls-3{fill:#c94723;}.cls-2{stroke:#222221;stroke-miterlimit:10;}.cls-4{fill:#222221;}.cls-5{fill:#70bd97;}</style></defs><g id="Layer_2" data-name="Layer 2"><g id="Lag_1" data-name="Lag 1"><rect class="cls-1" y="0.5" width="134.2" height="122" rx="25.93"/><path class="cls-2" d="M110.2.5H24A23.38,23.38,0,0,0,.61,23.89V99.1A23.39,23.39,0,0,0,24,122.5H110.2a23.4,23.4,0,0,0,23.39-23.4V23.89A23.39,23.39,0,0,0,110.2.5Zm15.42,97.89a15.08,15.08,0,0,1-15.09,15.09H24.64A14.53,14.53,0,0,1,10.11,99V26.14A17.38,17.38,0,0,1,27.49,8.76h80.26a17.88,17.88,0,0,1,17.87,17.88Z"/><path class="cls-3" d="M51.38,16.56a3.44,3.44,0,0,0-1.89,1.34,3.93,3.93,0,0,0-.36,2.42c-.21,15.88.27,30-.22,46.17-.09,2.88,0,6.44,0,18.46,0,2,0,4.77,0,6.7-1.09-.15-8.46-1.3-12.12-7.31a13.12,13.12,0,0,1-1.36-11.69,13.39,13.39,0,0,1,3.21-5.2c1-1,1.28-.9,1.79-1.7a4.84,4.84,0,0,0,.31-5.09C39.66,59,38.41,59,36.6,59.85s-4.34,3.8-5.34,5.51A23.57,23.57,0,0,0,30,87.77a19.15,19.15,0,0,0,2.66,4.46A20,20,0,0,0,41,98a29,29,0,0,0,14.5,1.64c.22-46.28.5-78.11.84-80.35a2.33,2.33,0,0,0-.21-1.48C55.4,16.46,53.1,16,51.38,16.56Z"/><path class="cls-4" d="M51.28,16.2c-2,.69-2.59,2.12-2.52,4.12.11,3.17-.06,6.37-.06,9.53,0,6.33.06,12.66.06,19,0,8.44-.29,16.87-.26,25.31,0,5.83,0,11.67,0,17.5l.48-.36c-5.18-.74-10.14-3.54-12.56-8.3a13,13,0,0,1-.58-10.47,12.87,12.87,0,0,1,3-4.81C40,66.63,41,66,41.46,64.43c.8-2.64-.72-6.24-3.94-5.32-3,.84-5.36,3.88-6.82,6.47a24.62,24.62,0,0,0,0,24.51c4.8,8.39,15.88,11.12,24.88,9.89a.38.38,0,0,0,.27-.36q.13-25.25.32-50.47c.08-9.06.1-18.12.39-27.18,0-.84,0-1.68.12-2.52a2.93,2.93,0,0,0-.85-2.58,5,5,0,0,0-4.55-.67.37.37,0,0,0,.2.72c1.83-.52,4.59-.12,4.48,2.29,0,.21-.05.43-.06.65-.06.84-.08,1.68-.11,2.52-.1,3.36-.14,6.72-.19,10.09-.17,12.55-.25,25.11-.33,37.67q-.1,14.73-.17,29.48l.28-.37c-8.13,1.12-18.3-1.13-23.23-8.25a23.74,23.74,0,0,1-.91-24.84,18.22,18.22,0,0,1,3-4C35.38,61,37,59.54,38.75,59.7c2.54.24,2.49,3.74,1.62,5.42-.69,1.35-2.24,2.2-3.17,3.41a14.1,14.1,0,0,0-.92,15.68c2.61,4.44,7.53,7.09,12.54,7.8a.37.37,0,0,0,.47-.36c0-7.88-.13-15.77,0-23.65.13-10.7.26-21.39.21-32.1,0-3.43,0-6.86,0-10.29,0-1.76.11-3.53,0-5.29-.06-1.6.33-2.84,2-3.4C51.94,16.77,51.74,16,51.28,16.2Z"/><path class="cls-3" d="M82.28,105.41a4.15,4.15,0,0,0,2.4-1.81,4.27,4.27,0,0,0,.51-2.31c-.12-4.16.13-8.32-.12-12.48-.14-2.25-.1-4.5-.15-6.76-.18-7.41,0-10.25.18-25.81.06-5.42.35-6.84.16-18.55a55.87,55.87,0,0,1,.07-7.1c.93.12,8.79,1.29,12.28,7.87a15.77,15.77,0,0,1,1.68,7.87c-.07,2.11-.16,4.85-2,7.15-1.42,1.79-2.57,1.64-3.52,3.54-.73,1.43-1.29,3.95,0,5.27s3.4.75,3.77.66c.68-.16,2.65-.86,5.4-5.45a23.61,23.61,0,0,0,1.52-22.39,19.46,19.46,0,0,0-2.62-4.5,19.94,19.94,0,0,0-8.31-5.82,33,33,0,0,0-15.5-2c-.69,21.9-.7,34.51-.56,42.09.07,4,.44,21-.09,27.56-.08.93-.09,1.84-.11,3.64-.08,6.94.62,8,1.26,8.55A4.15,4.15,0,0,0,82.28,105.41Z"/><path class="cls-4" d="M82.38,105.77a4.42,4.42,0,0,0,3.19-4.48c0-3.83.09-7.69-.08-11.52q-.3-7.18-.26-14.38c0-8.52.19-17,.4-25.55.06-2.46.07-4.93.06-7.39,0-3.94-.37-7.94,0-11.86l-.48.36c5.77.78,11.3,4.35,13,10.11,1,3.33,1.14,8.06-.57,11.17a7.87,7.87,0,0,1-2.28,2.49,6.52,6.52,0,0,0-1.56,1.45,6.77,6.77,0,0,0-1.18,4.42C93,63.24,95.78,64,98,63.21c2.45-.86,4.16-3.63,5.39-5.73a24.61,24.61,0,0,0,0-25.27c-4.94-8.16-16.44-11-25.37-9.83a.39.39,0,0,0-.38.38c-.41,13.22-.75,26.46-.59,39.7.12,10.35.28,20.66-.12,31-.08,2.15-.1,4.31,0,6.46a14.75,14.75,0,0,0,.47,3.5c.64,2.08,2.92,2.79,4.93,2.35.47-.1.27-.82-.2-.72-2.49.54-3.89-.7-4.24-2.9a42.87,42.87,0,0,1-.16-9.74c.4-5.5.31-11,.26-16.54-.08-9.11-.29-18.21-.19-27.32.1-8.6.31-17.2.58-25.79l-.37.37c7.9-1,18,1.09,23.29,7.43a23,23,0,0,1,4.83,12.74,23.51,23.51,0,0,1-3,13c-1.19,2.19-3,5.41-5.53,6.24-1.21.39-3,.38-3.78-.72-1.15-1.56-.29-4.4,1-5.68a17.24,17.24,0,0,1,1.64-1.29,7.76,7.76,0,0,0,1.84-2.23,11.17,11.17,0,0,0,1.25-4.77,17.74,17.74,0,0,0-1.44-9.15c-2.33-4.8-7.55-7.76-12.72-8.47a.38.38,0,0,0-.47.37,92.76,92.76,0,0,0,0,10.28c0,2.41,0,4.82,0,7.23-.06,3.51-.18,7-.22,10.52-.09,8.14-.26,16.26-.14,24.4.07,4.17.27,8.34.24,12.51,0,2,.07,4,0,6a3.63,3.63,0,0,1-2.64,3.56A.37.37,0,0,0,82.38,105.77Z"/><path class="cls-5" d="M57.76,17.26a4.38,4.38,0,0,1,3-1.05,3.9,3.9,0,0,1,2.61.88c.87.8,1,1.93,1.05,4.48.07,3.58-.05,5.64-.05,5.64-.16,2.52-.12,5-.19,7.57s-.11,4.69-.19,9.13c-.09,5-.15,8.5-.18,12.36,0,5.47,0,4.78.06,18.13,0,11,0,10.33,0,12,0,1.27.19,4.48.08,8.69-.16,6.15-.67,7.21-1.3,8-.8.94-2.23,1.86-8.88,1.92-7.49.07-11.23.1-15.8-1.83a28.9,28.9,0,0,1-10.24-7.58,28.4,28.4,0,0,1-6.72-14.47,26.07,26.07,0,0,1,.3-8.81A31.33,31.33,0,0,1,24.18,64a43.51,43.51,0,0,1,3.72-5.91c1.38-1.73,2.33-2.86,4.53-3.11s4.66,1.64,4,3.75c-.74,2.32-1.72,2.43-3.35,4.11a14.76,14.76,0,0,0-3.06,5,25.39,25.39,0,0,0-2,11.37,21.76,21.76,0,0,0,2.41,9.61,19.92,19.92,0,0,0,1.8,2.77,18.78,18.78,0,0,0,8,6.21,30.59,30.59,0,0,0,4.3,1.11,34.94,34.94,0,0,0,6.9,1,25.09,25.09,0,0,0,4.18-.53c0-7.65,0-14-.07-18.82,0-9.33,0-11.74,0-14.41.11-13.53.48-11.74.35-17.15,0,0-.27-10.85.62-28.65A4.62,4.62,0,0,1,57.76,17.26Z"/><path class="cls-4" d="M58,17.53c1.53-1.31,4.89-1.47,5.69.78a10.07,10.07,0,0,1,.33,3c0,1.32,0,2.64,0,4-.07,4.08-.22,8.16-.31,12.24-.17,7.74-.36,15.48-.32,23.22,0,7.27.09,14.54.08,21.81,0,5.3.36,10.61,0,15.91-.14,1.85-.19,4.11-2.06,5.07a12.12,12.12,0,0,1-4.62.91c-2.67.18-5.37.15-8,.11a27.08,27.08,0,0,1-11.18-2.08A28.73,28.73,0,0,1,27.78,95a28.41,28.41,0,0,1-5.44-9.9,27.62,27.62,0,0,1,.25-16.13,32.39,32.39,0,0,1,3.77-8c1.26-2,2.93-4.92,5.44-5.51a3.83,3.83,0,0,1,3.67,1c1.14,1.2.59,2.87-.38,4-1.18,1.37-2.69,2.32-3.7,3.87a26,26,0,0,0-2,23.21,20.59,20.59,0,0,0,7.16,8.75c3.65,2.5,8.39,3.38,12.71,3.85a23.94,23.94,0,0,0,6.49-.39.38.38,0,0,0,.28-.36c-.06-13-.26-26.07,0-39.09.06-3.24.31-6.49.29-9.74,0-2.66-.08-5.33-.06-8,0-3.64.09-7.27.2-10.91.07-2.32.16-4.63.26-6.95s-.36-5.41,1.26-7.16c.32-.36-.21-.89-.53-.53a5.69,5.69,0,0,0-1.31,3.85q-.16,3.49-.3,7Q55.68,33.42,55.6,39c-.05,3.33-.08,6.67,0,10,.06,2.86-.11,5.69-.19,8.54-.16,5-.18,10-.17,15.08q0,13.38.09,26.77l.27-.36a32.44,32.44,0,0,1-3.54.51,22.08,22.08,0,0,1-4.66-.42,42.23,42.23,0,0,1-6.76-1.57,18.81,18.81,0,0,1-9.83-8.89A23.09,23.09,0,0,1,28.4,76.8c.21-5.08,1.82-11,5.74-14.48,1.31-1.16,2.92-2.57,2.76-4.54-.15-1.79-2-3-3.64-3.19-2.18-.23-3.85,1-5.15,2.63a39.39,39.39,0,0,0-4.46,7,28.29,28.29,0,0,0,1.93,29.14c4.22,6,10.78,10.76,18.17,11.71a52.23,52.23,0,0,0,7,.31,58.67,58.67,0,0,0,8.06-.32c1.77-.24,3.8-.71,4.68-2.45A9.94,9.94,0,0,0,64.18,99c.24-2.74.26-5.51.23-8.25,0-2-.14-3.95-.15-5.93,0-7.41,0-14.83-.07-22.24-.06-7.59.12-15.18.26-22.77.09-4.45.18-8.9.33-13.35a45.65,45.65,0,0,0-.11-7.21A3.44,3.44,0,0,0,61.94,16a5.07,5.07,0,0,0-4.44,1C57.13,17.31,57.66,17.84,58,17.53Z"/><path class="cls-5" d="M76.1,104.39a4.23,4.23,0,0,1-4.83.57c-1.49-1.06-1.16-3.39-1-8.63.07-3.12-.16-6.24-.06-9.36.13-3.68-.06-.8,0-17.17,0-6.19.08-13.46.18-21.64-.25-10.64-.34-18.4-.29-19.82.06-1.77.07-2,.18-3.88.24-4.18-.16-5.48.53-6.63.93-1.58,3.33-1.85,6.14-1.93,6.77-.18,12.06-.32,19,2.61,3.62,1.53,7.84,3.33,11.58,7.74a26.91,26.91,0,0,1,6,14.71,24,24,0,0,1-.39,8.81,31.31,31.31,0,0,1-2.9,8.24,42,42,0,0,1-3.79,5.87,8.51,8.51,0,0,1-2.76,2.58,3.58,3.58,0,0,1-1.79.49,3.23,3.23,0,0,1-3-2.09A3,3,0,0,1,99,62.94a5.3,5.3,0,0,1,1.38-1.89A23.93,23.93,0,0,0,103,57.5a24.57,24.57,0,0,0,1.87-3.33,20.23,20.23,0,0,0,1.45-4.48,20,20,0,0,0,.13-7,24.18,24.18,0,0,0-1.36-6.2,21,21,0,0,0-3.33-6.22,18.43,18.43,0,0,0-7.52-5.86,25.21,25.21,0,0,0-4.27-1.16,31.62,31.62,0,0,0-7.23-.94,25.78,25.78,0,0,0-4.65.42c-.41,10-.55,18.21-.61,23.89-.06,6.28,0,5.7,0,18-.06,20.14-.29,18-.11,21.49.18,3.3-.13,6.61,0,9.91C77.43,100.66,77.69,103,76.1,104.39Z"/><path class="cls-4" d="M75.84,104.13c-1.42,1.16-4.36,1.61-5.09-.54-.52-1.55-.25-3.47-.2-5.07.13-4.19-.06-8.38,0-12.57.07-3,0-6,0-9q0-6.82,0-13.65c0-5.29.25-10.61.13-15.9-.16-7.05-.54-14.17-.19-21.22.1-2.07.15-4.12.19-6.19,0-1.63.51-2.72,2.21-3.26,2.26-.72,4.92-.51,7.27-.54a47.81,47.81,0,0,1,7.47.36A38.08,38.08,0,0,1,101,21.34a24,24,0,0,1,9.92,11.09A29.69,29.69,0,0,1,111,55.32a34.35,34.35,0,0,1-3.92,7c-1.35,1.93-3.59,5.17-6.37,4a2.41,2.41,0,0,1-1.23-3.55,14.16,14.16,0,0,1,1.82-2.21,33.75,33.75,0,0,0,3-4.61c4-7.08,3.31-16.32-.61-23.3a20,20,0,0,0-7.17-7.45,17.68,17.68,0,0,0-5.25-2A44.4,44.4,0,0,0,84.56,22a28.06,28.06,0,0,0-6.6.36.39.39,0,0,0-.28.37c-.47,11.74-.6,23.47-.59,35.21q0,10.4-.12,20.77c0,2-.12,4-.06,6,.07,2.69.08,5.36,0,8-.05,2.38.1,4.74.09,7.12,0,1.48,0,3.09-1.18,4.18-.35.33.18.86.53.53,1.89-1.8,1.42-5,1.35-7.29-.13-3.94.15-7.88,0-11.82-.08-1.61,0-3.22,0-4.83.19-10.82.06-21.64.13-32.45.05-8.51.27-17,.61-25.51l-.27.36a31.9,31.9,0,0,1,15.16,1.39,18.15,18.15,0,0,1,9.37,7.81,26.21,26.21,0,0,1,3.59,14.06c-.12,4.7-2.11,8.74-4.72,12.56-1,1.43-2.53,2.58-3,4.26a3.07,3.07,0,0,0,2,3.84c1.9.76,3.78-.24,5.09-1.63A33.94,33.94,0,0,0,110,59a30.34,30.34,0,0,0,2.67-23.68,25.23,25.23,0,0,0-7.79-12.09,35.6,35.6,0,0,0-12.27-6.26c-5-1.54-10.12-1.55-15.28-1.41-2.9.07-7.11.13-7.38,3.86-.14,2.07-.07,4.17-.18,6.25-.07,1.27-.13,2.55-.13,3.83,0,3.63.07,7.27.14,10.9.21,11,0,22,0,33,0,4.06.11,8.13,0,12.19-.07,3.89.1,7.78,0,11.66a29.52,29.52,0,0,0,0,5.87,3,3,0,0,0,1.78,2.47,4.81,4.81,0,0,0,4.72-.93C76.74,104.35,76.21,103.82,75.84,104.13Z"/></g></g></svg>