<?xml version="1.0" encoding="utf-8"?>
<!-- Generator: Adobe Illustrator 25.0.0, SVG Export Plug-In . SVG Version: 6.00 Build 0)  -->
<svg version="1.1" id="Layer_1" xmlns="http://www.w3.org/2000/svg" xmlns:xlink="http://www.w3.org/1999/xlink" x="0px" y="0px"
	 viewBox="0 0 1472 485" style="enable-background:new 0 0 1472 485;" xml:space="preserve">
<style type="text/css">
	.st0{opacity:0.9;fill:#6BBC94;}
	.st1{opacity:0.9;fill:#F0EB86;}
	.st2{opacity:0.9;fill:#FFB7C1;}
	.st3{fill:#FF5539;}
	.st4{fill:#FFFFFF;}
</style>
<rect x="0.1" y="182.5" class="st0" width="736.2" height="302.7"/>
<rect x="735.8" y="183.2" class="st1" width="736.2" height="301.5"/>
<path class="st2" d="M1451-0.5H18.3C7.9-0.5-0.4,7.9-0.4,18.2v169.1H1472V20.5C1472,8.9,1462.6-0.5,1451-0.5z"/>
<rect x="1070.1" y="-0.5" class="st3" width="401.9" height="187.7"/>
<g>
	<g>
		<path class="st4" d="M1138.1,111.6c-2.1-0.4-4.1-1.1-5.9-2c-1.9-0.9-3.5-1.9-5-3.1l4-7.2c1.8,1.5,3.8,2.6,6.2,3.4
			c2.3,0.8,4.7,1.2,7.2,1.2c2.8,0,5-0.5,6.6-1.4c1.6-1,2.3-2.3,2.3-4.1v0c0-1.2-0.3-2.2-1-2.9c-0.7-0.7-1.6-1.2-2.7-1.6
			c-1.1-0.3-2.6-0.6-4.3-0.9c-0.1,0-0.1,0-0.2,0s-0.1,0-0.2,0l-0.7-0.1c-3.1-0.5-5.7-1.1-7.7-1.8c-2-0.7-3.8-2-5.2-3.8
			c-1.4-1.8-2.1-4.4-2.1-7.8v0c0-3,0.7-5.5,2-7.6c1.3-2.1,3.3-3.7,5.8-4.8c2.5-1.1,5.6-1.7,9.2-1.7c1.7,0,3.3,0.2,5.1,0.6
			s3.4,0.9,5.1,1.7c1.7,0.7,3.2,1.6,4.7,2.6l-3.7,7.4c-1.8-1.2-3.6-2.2-5.6-2.9c-1.9-0.7-3.8-1-5.6-1c-2.7,0-4.7,0.4-6.2,1.3
			c-1.5,0.9-2.2,2.1-2.2,3.7v0c0,1.3,0.4,2.4,1.1,3.2s1.7,1.3,2.8,1.7c1.1,0.4,2.7,0.7,4.7,1.1c0.1,0,0.2,0,0.3,0c0.1,0,0.2,0,0.3,0
			c0.1,0,0.2,0,0.4,0.1c0.1,0,0.2,0.1,0.4,0.1c2.9,0.6,5.4,1.3,7.3,2.1c2,0.8,3.6,2.1,4.9,3.9c1.3,1.8,2,4.3,2,7.4v0.1
			c0,2.9-0.7,5.5-2.1,7.6c-1.4,2.1-3.4,3.7-6,4.8c-2.6,1.1-5.8,1.7-9.5,1.7C1142.3,112.2,1140.2,112,1138.1,111.6z"/>
		<path class="st4" d="M1170.1,65.6h8.7v46.1h-8.7V65.6z M1173.2,65.6h27.8V74h-27.8V65.6z M1173.2,84.6h24.3V93h-24.3V84.6z
			 M1173.2,103.4h27.8v8.4h-27.8V103.4z"/>
		<path class="st4" d="M1255.4,65.6h11.5v46.1h-7.9V75.9l0.3,2l-8.8,28.7h-7.7l-8.8-28l0.3-2.7v35.8h-7.9V65.6h11.5l8.8,31.1
			L1255.4,65.6z"/>
		<path class="st4" d="M1277,65.6h8.7v46.1h-8.7V65.6z M1280.2,65.6h27.8V74h-27.8V65.6z M1280.2,84.6h24.3V93h-24.3V84.6z
			 M1280.2,103.4h27.8v8.4h-27.8V103.4z"/>
		<path class="st4" d="M1315.9,65.6h8.7v46.2h-8.7V65.6z M1319.3,84.8h16.1c0.9,0,1.7-0.2,2.3-0.7c0.7-0.4,1.2-1.1,1.6-1.9
			s0.6-1.8,0.6-2.9c0-1.1-0.2-2-0.6-2.9c-0.4-0.8-0.9-1.5-1.6-1.9c-0.7-0.4-1.5-0.7-2.4-0.7h-16.1v-8.4h16.8c2.5,0,4.8,0.6,6.7,1.7
			c1.9,1.1,3.4,2.8,4.5,4.8c1.1,2.1,1.6,4.5,1.6,7.3c0,2.8-0.5,5.2-1.6,7.3c-1.1,2.1-2.6,3.7-4.5,4.8c-1.9,1.1-4.2,1.7-6.7,1.7
			h-16.8V84.8z M1329,91.7l9.3-1.5l12.4,21.5h-10.5L1329,91.7z"/>
		<path class="st4" d="M1358.2,65.6h8.7v46.1h-8.7V65.6z M1361.4,65.6h27.8V74h-27.8V65.6z M1361.4,84.6h24.3V93h-24.3V84.6z
			 M1361.4,103.4h27.8v8.4h-27.8V103.4z"/>
	</g>
</g>
<g>
	<g>
		<path class="st3" d="M827,327.6l14.4-24.6h12.7L833,339.1l-16.3,27.8H804L827,327.6z M826.9,340.7l-1.2-2.1L804.5,303h12.7
			l14.3,24.2l1.7,2.9l21.8,36.8h-12.7L826.9,340.7z"/>
		<path class="st3" d="M873.2,366.6c-2.9-0.6-5.7-1.5-8.2-2.7c-2.6-1.2-4.9-2.6-6.9-4.3l5.6-9.9c2.5,2,5.3,3.6,8.5,4.7
			c3.2,1.1,6.5,1.6,9.9,1.6c3.9,0,7-0.7,9.1-2c2.2-1.3,3.3-3.2,3.3-5.6v0c0-1.7-0.5-3-1.5-4s-2.2-1.7-3.8-2.2s-3.5-0.9-6-1.3
			c-0.1,0-0.2,0-0.2,0s-0.2,0-0.2,0l-1-0.1c-4.3-0.7-7.8-1.5-10.6-2.5c-2.8-1-5.2-2.8-7.2-5.3c-2-2.5-2.9-6.1-2.9-10.8v0
			c0-4.1,0.9-7.7,2.8-10.6s4.5-5.2,8-6.7c3.5-1.5,7.8-2.3,12.7-2.3c2.3,0,4.6,0.3,7,0.8s4.7,1.3,7,2.3c2.3,1,4.5,2.2,6.5,3.6
			l-5.1,10.2c-2.5-1.7-5-3-7.7-4c-2.7-0.9-5.3-1.4-7.7-1.4c-3.7,0-6.5,0.6-8.6,1.8c-2,1.2-3,2.9-3,5.1v0c0,1.8,0.5,3.3,1.6,4.4
			c1.1,1.1,2.4,1.9,3.9,2.4c1.6,0.5,3.7,1,6.5,1.6c0.1,0,0.2,0.1,0.4,0.1c0.1,0,0.2,0,0.4,0.1c0.2,0,0.3,0.1,0.5,0.1
			c0.2,0,0.3,0.1,0.5,0.1c4,0.8,7.4,1.8,10.1,2.9c2.7,1.1,5,2.9,6.8,5.4c1.8,2.5,2.7,5.9,2.7,10.3v0.1c0,4.1-1,7.6-2.9,10.5
			s-4.7,5.1-8.3,6.6c-3.6,1.5-8,2.3-13.2,2.3C879.1,367.6,876.2,367.2,873.2,366.6z"/>
		<path class="st3" d="M914.7,354.9h12v15.7l-12,11.5V354.9z"/>
		<path class="st3" d="M973.2,366.6c-2.9-0.6-5.7-1.5-8.2-2.7c-2.6-1.2-4.9-2.6-6.9-4.3l5.6-9.9c2.5,2,5.3,3.6,8.5,4.7
			c3.2,1.1,6.5,1.6,9.9,1.6c3.9,0,7-0.7,9.1-2c2.2-1.3,3.3-3.2,3.3-5.6v0c0-1.7-0.5-3-1.5-4s-2.2-1.7-3.8-2.2s-3.5-0.9-6-1.3
			c-0.1,0-0.2,0-0.2,0s-0.2,0-0.2,0l-1-0.1c-4.3-0.7-7.8-1.5-10.6-2.5c-2.8-1-5.2-2.8-7.2-5.3c-2-2.5-2.9-6.1-2.9-10.8v0
			c0-4.1,0.9-7.7,2.8-10.6s4.5-5.2,8-6.7c3.5-1.5,7.8-2.3,12.7-2.3c2.3,0,4.6,0.3,7,0.8s4.7,1.3,7,2.3c2.3,1,4.5,2.2,6.5,3.6
			l-5.1,10.2c-2.5-1.7-5-3-7.7-4c-2.7-0.9-5.3-1.4-7.7-1.4c-3.7,0-6.5,0.6-8.6,1.8c-2,1.2-3,2.9-3,5.1v0c0,1.8,0.5,3.3,1.6,4.4
			c1.1,1.1,2.4,1.9,3.9,2.4c1.6,0.5,3.7,1,6.5,1.6c0.1,0,0.2,0.1,0.4,0.1c0.1,0,0.2,0,0.4,0.1c0.2,0,0.3,0.1,0.5,0.1
			c0.2,0,0.3,0.1,0.5,0.1c4,0.8,7.4,1.8,10.1,2.9c2.7,1.1,5,2.9,6.8,5.4c1.8,2.5,2.7,5.9,2.7,10.3v0.1c0,4.1-1,7.6-2.9,10.5
			s-4.7,5.1-8.3,6.6c-3.6,1.5-8,2.3-13.2,2.3C979.1,367.6,976.1,367.2,973.2,366.6z"/>
		<path class="st3" d="M1014.6,354.9h12v15.7l-12,11.5V354.9z"/>
		<path class="st3" d="M1102.3,303h15.9v63.9h-10.9v-49.6l0.4,2.8l-12.2,39.7h-10.6l-12.2-38.8l0.4-3.7v49.6H1062V303h15.9
			l12.2,43.1L1102.3,303z"/>
		<path class="st3" d="M1129.3,354.9h12v15.7l-12,11.5V354.9z"/>
		<path class="st3" d="M1176.7,303h12v63.9h-12V303z M1182.1,355.3h37.4v11.6h-37.4V355.3z"/>
		<path class="st3" d="M1225.5,354.9h12v15.7l-12,11.5V354.9z"/>
		<path class="st3" d="M1288.9,327.6l14.4-24.6h12.7l-21.1,36.1l-16.3,27.8h-12.7L1288.9,327.6z M1288.8,340.7l-1.2-2.1l-21.1-35.7
			h12.7l14.3,24.2l1.7,2.9l21.8,36.8h-12.7L1288.8,340.7z"/>
		<path class="st3" d="M1324,303h12v63.9h-12V303z M1329.3,355.3h37.4v11.6h-37.4V355.3z"/>
	</g>
</g>
<g>
	<g>
		<path class="st3" d="M81.9,114.8c-2.2-0.5-4.3-1.2-6.3-2.1c-2-0.9-3.7-2-5.3-3.3l4.3-7.6c1.9,1.5,4.1,2.7,6.5,3.6
			c2.5,0.8,5,1.3,7.6,1.3c3,0,5.3-0.5,7-1.5s2.5-2.5,2.5-4.3v0c0-1.3-0.4-2.3-1.1-3.1c-0.7-0.8-1.7-1.3-2.9-1.7
			c-1.2-0.4-2.7-0.7-4.6-1c-0.1,0-0.1,0-0.2,0s-0.1,0-0.2,0l-0.7-0.1c-3.3-0.5-6-1.2-8.2-1.9c-2.2-0.8-4-2.1-5.5-4.1
			s-2.3-4.7-2.3-8.3v0c0-3.2,0.7-5.9,2.1-8.1c1.4-2.2,3.5-4,6.2-5.1c2.7-1.2,6-1.8,9.8-1.8c1.8,0,3.5,0.2,5.4,0.6s3.6,1,5.4,1.8
			c1.8,0.8,3.4,1.7,5,2.8l-3.9,7.8c-1.9-1.3-3.9-2.3-5.9-3c-2.1-0.7-4-1.1-5.9-1.1c-2.8,0-5,0.5-6.6,1.4c-1.5,0.9-2.3,2.2-2.3,3.9v0
			c0,1.4,0.4,2.5,1.2,3.4s1.8,1.4,3,1.8c1.2,0.4,2.9,0.8,5,1.2c0.1,0,0.2,0,0.3,0.1c0.1,0,0.2,0,0.3,0.1c0.1,0,0.3,0.1,0.4,0.1
			c0.1,0,0.3,0.1,0.4,0.1c3.1,0.6,5.7,1.3,7.8,2.2c2.1,0.9,3.8,2.3,5.2,4.2c1.4,1.9,2.1,4.5,2.1,7.9v0.1c0,3.1-0.7,5.8-2.2,8
			s-3.6,3.9-6.4,5.1c-2.8,1.2-6.2,1.8-10.1,1.8C86.5,115.5,84.2,115.3,81.9,114.8z"/>
		<path class="st3" d="M136,66h7.4l9.4,32.7l6.3-32.7h9.5l-11.3,49h-8.7l-8.7-34.2l-9.1,34.2h-8.7l-11.3-49h9.5l6.3,32.7L136,66z"/>
		<path class="st3" d="M174.3,66h9.2v49h-9.2V66z M177.6,66h29.5v8.9h-29.5V66z M177.6,86.2h25.8v8.9h-25.8V86.2z M177.6,106.1h29.5
			v8.9h-29.5V106.1z"/>
		<path class="st3" d="M229.5,66h5.9l18.7,49h-9.9l-11.7-33.5L220.8,115h-9.9L229.5,66z M219.8,98.2h25.8v8.9h-25.8V98.2z"/>
		<path class="st3" d="M253.5,66h35.9v8.9h-35.9V66z M266.8,70h9.2v45h-9.2V70z"/>
		<path class="st3" d="M293.4,66h9.2v49h-9.2V66z M297.6,87.1h15.7c1.1,0,2.1-0.3,2.9-0.8c0.8-0.5,1.5-1.2,2-2.1
			c0.5-0.9,0.7-2,0.7-3.2c0-1.2-0.2-2.3-0.7-3.2c-0.5-0.9-1.1-1.7-2-2.2c-0.8-0.5-1.8-0.8-2.9-0.8h-15.7V66h15.4
			c3.1,0,5.7,0.6,8.1,1.9c2.3,1.2,4.1,3,5.4,5.3c1.3,2.3,1.9,4.9,1.9,7.9c0,3-0.6,5.6-1.9,7.9c-1.3,2.3-3.1,4-5.4,5.2
			c-2.3,1.2-5,1.9-8.1,1.9h-15.4V87.1z"/>
		<path class="st3" d="M350.4,66h5.9l18.7,49h-9.9l-11.7-33.5L341.6,115h-9.9L350.4,66z M340.7,98.2h25.8v8.9h-25.8V98.2z"/>
		<path class="st3" d="M381.1,66h11.3l18.2,37.5l-0.8,0.9V66h8.8v49h-11.4l-18.2-37l0.8-0.9V115h-8.8V66z"/>
		<path class="st3" d="M422.6,66h35.9v8.9h-35.9V66z M436,70h9.2v45H436V70z"/>
		<path class="st3" d="M471.1,114.8c-2.2-0.5-4.3-1.2-6.3-2.1c-2-0.9-3.7-2-5.3-3.3l4.3-7.6c1.9,1.5,4.1,2.7,6.5,3.6
			c2.5,0.8,5,1.3,7.6,1.3c3,0,5.3-0.5,7-1.5s2.5-2.5,2.5-4.3v0c0-1.3-0.4-2.3-1.1-3.1c-0.7-0.8-1.7-1.3-2.9-1.7
			c-1.2-0.4-2.7-0.7-4.6-1c-0.1,0-0.1,0-0.2,0s-0.1,0-0.2,0l-0.7-0.1c-3.3-0.5-6-1.2-8.2-1.9c-2.2-0.8-4-2.1-5.5-4.1
			s-2.3-4.7-2.3-8.3v0c0-3.2,0.7-5.9,2.1-8.1c1.4-2.2,3.5-4,6.2-5.1c2.7-1.2,6-1.8,9.8-1.8c1.8,0,3.5,0.2,5.4,0.6s3.6,1,5.4,1.8
			c1.8,0.8,3.4,1.7,5,2.8l-3.9,7.8c-1.9-1.3-3.9-2.3-5.9-3c-2.1-0.7-4-1.1-5.9-1.1c-2.8,0-5,0.5-6.6,1.4c-1.5,0.9-2.3,2.2-2.3,3.9v0
			c0,1.4,0.4,2.5,1.2,3.4s1.8,1.4,3,1.8c1.2,0.4,2.9,0.8,5,1.2c0.1,0,0.2,0,0.3,0.1c0.1,0,0.2,0,0.3,0.1c0.1,0,0.3,0.1,0.4,0.1
			c0.1,0,0.3,0.1,0.4,0.1c3.1,0.6,5.7,1.3,7.8,2.2c2.1,0.9,3.8,2.3,5.2,4.2c1.4,1.9,2.1,4.5,2.1,7.9v0.1c0,3.1-0.7,5.8-2.2,8
			s-3.6,3.9-6.4,5.1c-2.8,1.2-6.2,1.8-10.1,1.8C475.7,115.5,473.4,115.3,471.1,114.8z"/>
		<path class="st3" d="M554.4,66h12.2v49h-8.4v-38l0.3,2.2l-9.4,30.4H541l-9.4-29.7l0.3-2.8v38h-8.4V66h12.2l9.3,33L554.4,66z"/>
		<path class="st3" d="M577.4,66h9.2v49h-9.2V66z M580.7,66h29.5v8.9h-29.5V66z M580.7,86.2h25.8v8.9h-25.8V86.2z M580.7,106.1h29.5
			v8.9h-29.5V106.1z"/>
		<path class="st3" d="M618.6,66h9.2v49h-9.2V66z M623.3,106.1H635c3,0,5.4-0.7,7-2.2c1.7-1.5,2.5-3.5,2.5-6.2V83.3
			c0-2.7-0.8-4.7-2.5-6.2c-1.7-1.5-4-2.2-7-2.2h-11.8V66h11.6c4.1,0,7.6,0.7,10.5,2.1c2.9,1.4,5.1,3.4,6.6,6
			c1.5,2.6,2.3,5.8,2.3,9.5v13.9c0,3.5-0.7,6.6-2.2,9.2c-1.4,2.6-3.6,4.7-6.5,6.1c-2.9,1.5-6.4,2.2-10.6,2.2h-11.5V106.1z"/>
		<path class="st3" d="M682.4,66h9.2v49h-9.2V66z M685.8,66h29.5v8.9h-29.5V66z M685.8,86.2h25.8v8.9h-25.8V86.2z M685.8,106.1h29.5
			v8.9h-29.5V106.1z"/>
		<path class="st3" d="M723.7,66h9.2v49h-9.2V66z M727.8,106.1h28.7v8.9h-28.7V106.1z"/>
		<path class="st3" d="M777.2,66h5.9l18.7,49h-9.9l-11.7-33.5L768.4,115h-9.9L777.2,66z M767.5,98.2h25.8v8.9h-25.8V98.2z"/>
		<path class="st3" d="M816.4,114.8c-2.2-0.5-4.3-1.2-6.3-2.1c-2-0.9-3.7-2-5.3-3.3l4.3-7.6c1.9,1.5,4.1,2.7,6.5,3.6
			c2.5,0.8,5,1.3,7.6,1.3c3,0,5.3-0.5,7-1.5s2.5-2.5,2.5-4.3v0c0-1.3-0.4-2.3-1.1-3.1c-0.7-0.8-1.7-1.3-2.9-1.7
			c-1.2-0.4-2.7-0.7-4.6-1c-0.1,0-0.1,0-0.2,0s-0.1,0-0.2,0l-0.7-0.1c-3.3-0.5-6-1.2-8.2-1.9c-2.2-0.8-4-2.1-5.5-4.1
			s-2.3-4.7-2.3-8.3v0c0-3.2,0.7-5.9,2.1-8.1c1.4-2.2,3.5-4,6.2-5.1c2.7-1.2,6-1.8,9.8-1.8c1.8,0,3.5,0.2,5.4,0.6s3.6,1,5.4,1.8
			c1.8,0.8,3.4,1.7,5,2.8l-3.9,7.8c-1.9-1.3-3.9-2.3-5.9-3c-2.1-0.7-4-1.1-5.9-1.1c-2.8,0-5,0.5-6.6,1.4c-1.5,0.9-2.3,2.2-2.3,3.9v0
			c0,1.4,0.4,2.5,1.2,3.4s1.8,1.4,3,1.8c1.2,0.4,2.9,0.8,5,1.2c0.1,0,0.2,0,0.3,0.1c0.1,0,0.2,0,0.3,0.1c0.1,0,0.3,0.1,0.4,0.1
			c0.1,0,0.3,0.1,0.4,0.1c3.1,0.6,5.7,1.3,7.8,2.2c2.1,0.9,3.8,2.3,5.2,4.2c1.4,1.9,2.1,4.5,2.1,7.9v0.1c0,3.1-0.7,5.8-2.2,8
			s-3.6,3.9-6.4,5.1c-2.8,1.2-6.2,1.8-10.1,1.8C821,115.5,818.7,115.3,816.4,114.8z"/>
		<path class="st3" d="M843.6,66h35.9v8.9h-35.9V66z M857,70h9.2v45H857V70z"/>
		<path class="st3" d="M892.5,115h-9.6V66h9.6V115z"/>
		<path class="st3" d="M902.6,66h9.2v49h-9.2V66z M908.2,95.9L927.8,66h11.6l-30.1,41.8L908.2,95.9z M916.3,90.2l8-5l17.2,29.8h-11
			L916.3,90.2z"/>
	</g>
</g>
<g>
	<g>
		<path class="st4" d="M274.8,374.8h-16.1v-66.3l-10.4,3.9v-17.1l12.7-5.7h13.7V374.8z"/>
		<path class="st4" d="M290.6,347l26.3-57.3H335l-25.5,56.6h38.3v15.5h-57.1V347z M325,324.7H341v50.2H325V324.7z"/>
		<path class="st4" d="M388.4,332.5l2.9,2.1c-1,1.8-2.5,3.1-4.4,4c-2,0.8-4.3,1.3-7,1.3c-4.3,0-8.1-1-11.3-3.1
			c-3.3-2.1-5.8-5-7.6-8.8c-1.8-3.8-2.7-8.1-2.7-13.1v-0.1c0-5.5,1-10.2,2.9-14.1c2-3.9,4.8-6.9,8.5-8.9c3.7-2,8.2-3,13.5-3
			c5.2,0,9.7,1,13.4,3.1c3.7,2.1,6.6,5.1,8.5,9c2,3.9,2.9,8.7,2.9,14.2v0.1c0,2.9-0.4,5.9-1.2,9.2s-2,6.9-3.5,10.7
			c-0.2,0.5-0.4,1.1-0.6,1.6c-0.2,0.5-0.4,1.1-0.7,1.6l-15.2,36.5h-17L388.4,332.5z M389.7,322.1c1.5-1.8,2.3-4.4,2.3-7.7v-0.1
			c0-3.2-0.8-5.7-2.3-7.4c-1.5-1.7-3.7-2.6-6.5-2.6c-2.9,0-5,0.9-6.6,2.6c-1.5,1.8-2.3,4.2-2.3,7.4v0.1c0,3.3,0.8,5.9,2.3,7.7
			c1.5,1.8,3.7,2.7,6.6,2.7C386,324.8,388.2,323.9,389.7,322.1z"/>
		<path class="st4" d="M419.5,358.7h16.1v21l-16.1,15.4V358.7z"/>
		<path class="st4" d="M491.1,336.5V352h-41.7v-15.5H491.1z"/>
	</g>
</g>
</svg>
