<svg xmlns="http://www.w3.org/2000/svg" viewBox="0 0 209.1 360.16"><defs><style>.cls-1{fill:#feb7c0;}</style></defs><g id="Layer_2" data-name="Layer 2"><g id="Lag_1" data-name="Lag 1"><path class="cls-1" d="M209.1,104.55A104.55,104.55,0,1,0,44,189.8v48a5.77,5.77,0,1,0,11.54,0V196.92q4.26,2.27,8.73,4.14V322.72a5.77,5.77,0,0,0,11.54,0V205.1a104,104,0,0,0,26.46,4V354.39a5.77,5.77,0,0,0,11.54,0V208.69c2.08-.19,4.15-.43,6.19-.73v107a5.78,5.78,0,1,0,11.55,0V205.57a103.76,103.76,0,0,0,15.84-5.63v40.28a5.77,5.77,0,1,0,11.54,0V193.85a105,105,0,0,0,30.7-28.55v21.18a5.78,5.78,0,0,0,11.55,0v-42A104.31,104.31,0,0,0,209.1,104.55Z"/></g></g></svg>